<svg width="60" height="60" viewBox="0 0 60 60" fill="none" xmlns="http://www.w3.org/2000/svg">
<rect width="60" height="60" rx="12" fill="#EEF2FF"/>
<path d="M34.6506 26.1392C34.4848 25.6023 34.2562 25.1217 33.9645 24.6974C33.6795 24.2666 33.3348 23.8987 32.9304 23.5938C32.5327 23.2888 32.0753 23.0601 31.5582 22.9077C31.0412 22.7486 30.4777 22.669 29.8679 22.669C28.7741 22.669 27.7997 22.9441 26.9446 23.4943C26.0895 24.0445 25.4167 24.8532 24.9261 25.9205C24.4422 26.9811 24.2003 28.2737 24.2003 29.7983C24.2003 31.3362 24.4422 32.6387 24.9261 33.706C25.41 34.7732 26.0829 35.5852 26.9446 36.142C27.8063 36.6922 28.8073 36.9673 29.9474 36.9673C30.9815 36.9673 31.8764 36.7685 32.6321 36.3707C33.3944 35.973 33.9811 35.4096 34.392 34.6804C34.803 33.9446 35.0085 33.0829 35.0085 32.0952L35.8438 32.2244H30.3153V29.3409H38.5781V31.7869C38.5781 33.5303 38.2069 35.0384 37.4645 36.3111C36.7221 37.5838 35.7012 38.5649 34.402 39.2543C33.1027 39.937 31.6113 40.2784 29.9276 40.2784C28.0516 40.2784 26.4044 39.8575 24.9858 39.0156C23.5739 38.1671 22.4702 36.964 21.6747 35.4062C20.8859 33.8419 20.4915 31.9858 20.4915 29.8381C20.4915 28.1941 20.7235 26.7259 21.1875 25.4332C21.6581 24.1406 22.3144 23.0436 23.1562 22.142C23.9981 21.2339 24.9858 20.5445 26.1193 20.0739C27.2528 19.5966 28.4858 19.358 29.8182 19.358C30.9451 19.358 31.9957 19.5237 32.9702 19.8551C33.9446 20.1799 34.8097 20.6439 35.5653 21.2472C36.3277 21.8504 36.9541 22.5663 37.4446 23.3949C37.9351 24.2235 38.2566 25.1383 38.4091 26.1392H34.6506Z" fill="#4F46E5"/>
</svg>
